<?xml version="1.0" standalone="no"?>
<!DOCTYPE svg PUBLIC "-//W3C//DTD SVG 20010904//EN"
 "http://www.w3.org/TR/2001/REC-SVG-20010904/DTD/svg10.dtd">
<svg version="1.0" xmlns="http://www.w3.org/2000/svg"
 width="500.000000pt" height="500.000000pt" viewBox="0 0 500.000000 500.000000"
 preserveAspectRatio="xMidYMid meet">
<metadata>
Created by potrace 1.11, written by Peter Selinger 2001-2013
</metadata>
<g transform="translate(0.000000,500.000000) scale(0.100000,-0.100000)"
fill="#000000" stroke="none">
<path d="M2246 4803 c-9 -9 -30 -13 -96 -16 -30 -1 -60 -6 -67 -10 -6 -4 -14
-3 -18 3 -4 6 -12 7 -18 3 -7 -4 -25 -9 -42 -10 -41 -4 -80 -10 -80 -13 0 -1
-16 -3 -35 -5 -19 -2 -35 -4 -35 -5 0 -1 -13 -4 -29 -6 -16 -3 -45 -12 -64
-20 -19 -7 -38 -11 -43 -8 -5 3 -9 0 -9 -6 0 -6 -4 -8 -10 -5 -5 3 -10 2 -10
-3 0 -5 -13 -12 -29 -15 -16 -3 -35 -12 -42 -20 -16 -15 -50 -31 -62 -28 -5 1
-6 -3 -2 -9 3 -5 -2 -13 -12 -17 -10 -4 -28 -17 -41 -30 -13 -13 -27 -23 -32
-23 -6 0 -9 -3 -9 -7 3 -20 -2 -34 -11 -28 -5 3 -10 2 -10 -2 0 -5 -10 -19
-23 -33 -13 -14 -26 -33 -30 -43 -4 -10 -11 -15 -17 -12 -5 3 -7 0 -4 -8 3 -8
0 -18 -5 -22 -6 -3 -9 -11 -6 -16 4 -5 1 -9 -5 -9 -6 0 -18 -16 -26 -35 -8
-19 -19 -35 -24 -35 -5 0 -7 -7 -4 -15 4 -8 1 -15 -6 -15 -6 0 -9 -4 -5 -9 3
-5 0 -13 -6 -16 -5 -4 -8 -13 -5 -20 2 -7 -2 -16 -11 -19 -8 -4 -13 -13 -9
-21 3 -8 0 -15 -6 -15 -6 0 -9 -3 -5 -6 3 -4 -1 -13 -9 -21 -8 -8 -12 -19 -9
-24 4 -5 1 -9 -6 -9 -7 0 -9 -3 -6 -7 4 -3 1 -16 -6 -27 -8 -12 -17 -34 -21
-49 -3 -15 -10 -26 -14 -23 -4 2 -8 -6 -9 -17 -3 -45 -8 -62 -23 -74 -8 -7
-12 -13 -8 -13 4 0 1 -15 -7 -34 -8 -18 -11 -36 -8 -40 4 -3 1 -6 -6 -6 -8 0
-11 -7 -7 -15 3 -8 1 -15 -5 -15 -6 0 -8 -4 -5 -8 3 -5 -1 -21 -9 -36 -10 -18
-10 -24 -2 -19 9 5 9 3 0 -9 -7 -8 -10 -18 -6 -21 3 -4 1 -7 -5 -7 -7 0 -11
-3 -11 -7 4 -23 -2 -54 -9 -49 -4 3 -7 -8 -6 -25 1 -16 -2 -29 -7 -29 -5 0 -8
-3 -8 -7 1 -5 0 -10 -1 -13 -1 -3 -3 -18 -5 -35 -2 -16 -6 -41 -9 -55 -3 -14
-7 -32 -8 -40 -2 -8 -7 -20 -10 -26 -4 -5 -5 -19 -4 -30 2 -10 -1 -25 -7 -31
-5 -7 -6 -13 -2 -13 4 0 3 -6 -2 -12 -5 -7 -10 -26 -12 -43 -2 -16 -7 -38 -12
-48 -6 -9 -7 -22 -4 -27 3 -6 3 -10 -2 -10 -4 0 -9 -19 -11 -43 -1 -23 -7 -44
-12 -45 -6 -2 -7 -8 -4 -13 7 -13 -5 -64 -13 -55 -3 3 -13 0 -21 -7 -13 -10
-14 -9 -7 3 4 8 -5 2 -21 -15 -16 -16 -27 -33 -26 -37 1 -5 -3 -8 -9 -8 -5 0
-8 -4 -5 -9 4 -5 2 -11 -4 -13 -5 -1 -11 -15 -12 -30 -1 -16 -5 -28 -8 -28 -5
0 -10 -25 -12 -60 0 -8 -4 -19 -7 -25 -4 -5 -6 -25 -6 -42 1 -18 -3 -33 -7
-33 -5 0 -6 -4 -3 -10 3 -5 2 -10 -2 -10 -5 0 -10 -17 -11 -39 -2 -21 -5 -49
-8 -62 -3 -13 -6 -30 -6 -36 -1 -7 -4 -13 -8 -13 -4 0 -6 -12 -4 -27 1 -15 -2
-36 -8 -46 -7 -14 -7 -17 1 -12 6 3 2 -10 -9 -30 -11 -20 -18 -40 -15 -46 4
-5 1 -9 -4 -9 -6 0 -11 -7 -11 -15 0 -8 -4 -15 -10 -15 -5 0 -7 -6 -4 -14 3
-8 1 -17 -5 -21 -6 -3 -11 -15 -11 -26 0 -11 -7 -33 -15 -49 -9 -17 -11 -31
-6 -35 6 -3 4 -17 -4 -32 -8 -15 -12 -30 -9 -35 3 -4 1 -8 -4 -8 -5 0 -8 -12
-7 -27 1 -16 -2 -35 -6 -44 -5 -9 -3 -21 3 -27 8 -8 8 -15 -1 -26 -9 -11 -9
-15 1 -19 10 -4 10 -6 -1 -6 -11 -1 -11 -4 -1 -16 7 -8 8 -15 3 -15 -5 0 -10
-7 -10 -15 0 -8 5 -15 10 -15 5 0 3 -8 -4 -17 -12 -15 -12 -16 1 -8 13 8 13 7
1 -8 -10 -13 -10 -17 -1 -17 10 0 10 -3 1 -14 -7 -8 -8 -17 -3 -19 4 -3 8 -24
7 -46 -1 -23 2 -41 5 -41 3 0 6 -8 6 -17 1 -10 4 -31 8 -48 4 -16 8 -37 10
-45 1 -8 8 -27 14 -43 6 -15 14 -38 16 -50 2 -12 11 -38 19 -57 8 -19 18 -44
22 -55 5 -11 9 -22 10 -25 2 -3 6 -15 10 -27 4 -13 12 -23 17 -23 5 0 7 -4 4
-9 -6 -9 22 -71 37 -82 5 -3 8 -9 7 -13 -1 -4 17 -48 41 -99 24 -51 42 -95 41
-99 -1 -5 3 -8 8 -8 6 0 10 -6 10 -12 0 -17 62 -142 72 -146 4 -2 8 -12 8 -23
0 -10 9 -28 19 -38 11 -11 18 -21 15 -23 -6 -7 98 -112 136 -138 19 -13 38
-28 41 -33 3 -4 16 -9 27 -10 12 -1 22 -5 22 -9 0 -4 6 -8 14 -8 8 0 16 -4 18
-10 2 -5 12 -11 23 -14 43 -9 65 -19 65 -29 0 -6 3 -7 7 -4 3 4 12 2 20 -4 7
-6 13 -9 13 -5 0 4 18 -3 40 -14 21 -11 48 -20 60 -20 11 0 20 -4 20 -8 0 -5
6 -9 13 -10 18 -1 49 -9 80 -21 16 -6 33 -9 38 -5 5 3 9 0 9 -7 0 -7 3 -10 6
-6 3 3 26 -1 52 -8 25 -8 49 -12 53 -9 4 2 10 0 14 -5 3 -5 14 -8 25 -6 11 2
20 0 20 -4 0 -4 9 -7 19 -6 11 1 45 -2 75 -5 31 -3 56 -2 56 3 0 4 5 5 10 2 6
-4 17 -2 25 5 9 7 15 8 20 0 4 -7 12 -7 26 0 14 8 19 7 19 -2 0 -8 3 -9 8 -3
8 12 22 15 72 19 20 1 41 5 47 9 5 3 25 9 43 12 18 3 41 10 50 15 10 5 20 7
23 4 3 -3 14 -1 24 5 11 5 30 11 44 13 13 2 34 9 45 16 12 6 24 9 27 5 4 -3
13 0 21 6 8 7 20 10 26 6 5 -3 10 -2 10 3 0 5 12 10 26 10 15 0 29 3 33 8 3 5
15 10 26 12 22 3 49 9 53 12 1 2 7 4 12 5 6 1 11 3 13 5 1 1 9 3 17 5 17 3
107 32 130 42 8 3 17 7 20 8 26 9 48 18 62 26 10 5 22 9 28 9 16 0 144 61 163
77 9 9 17 13 17 10 0 -11 99 48 112 68 4 5 8 6 8 2 0 -5 7 -1 16 7 8 9 19 14
24 11 5 -3 11 4 15 15 4 11 10 18 14 15 5 -2 22 9 39 25 20 18 32 25 36 17 2
-7 5 -4 5 6 1 9 8 17 17 17 8 0 12 5 9 10 -3 6 4 10 16 10 12 0 19 3 16 7 -4
3 11 19 33 35 22 17 40 34 40 39 0 5 5 9 11 9 6 0 32 21 58 47 25 26 49 47 54
45 4 -1 7 2 7 8 0 21 92 -7 111 -34 4 -5 14 -6 22 -3 8 3 20 0 26 -6 8 -8 11
-8 11 2 0 8 7 10 20 6 11 -4 20 -2 20 4 0 6 3 10 8 10 19 -3 33 3 52 23 11 12
20 18 20 15 0 -4 19 12 43 37 62 66 87 97 87 107 0 6 4 8 9 5 9 -6 25 31 21
49 -1 5 2 7 5 3 10 -10 45 35 45 57 0 9 4 13 10 10 5 -3 12 7 16 22 4 15 18
41 31 57 13 16 22 35 19 42 -3 7 2 15 10 18 9 3 12 10 9 16 -3 5 -1 10 4 10 6
0 10 3 9 8 -1 4 4 23 11 42 8 19 15 38 16 43 1 4 3 8 5 10 1 1 3 9 5 17 2 8 7
26 10 40 3 14 8 43 11 65 3 22 7 46 9 53 2 6 1 12 -3 12 -5 0 -9 10 -9 23 -1
12 -4 31 -6 42 -3 11 -6 25 -6 32 -1 6 -10 15 -21 18 -11 4 -18 10 -15 15 3 4
-7 16 -21 25 -15 9 -23 11 -19 4 6 -8 4 -10 -6 -3 -21 13 -41 14 -62 2 -13 -7
-22 -7 -30 1 -8 8 -8 11 2 11 7 0 9 4 6 10 -3 5 1 22 9 38 8 16 12 32 9 36 -4
3 -1 6 6 6 7 0 9 5 6 10 -3 6 -2 10 4 10 6 0 8 7 5 15 -4 8 -1 15 6 15 10 0
10 3 0 15 -10 12 -9 16 2 20 7 3 14 13 15 23 1 9 7 31 14 47 7 17 11 34 10 39
-1 4 3 14 10 22 6 8 9 21 5 29 -3 8 -2 15 3 15 4 0 15 18 24 40 8 22 11 37 6
34 -6 -4 -6 1 0 12 11 20 34 74 35 86 1 3 4 9 8 13 4 4 4 13 1 21 -3 8 0 14 6
14 6 0 10 3 10 8 -1 4 0 9 1 12 5 15 11 47 11 63 0 9 5 17 11 17 5 0 8 7 4 15
-3 8 0 15 7 15 8 0 8 3 -2 9 -10 6 -10 10 -1 13 6 2 13 16 13 31 1 15 5 27 10
27 4 0 6 3 5 8 -1 4 2 27 7 52 5 25 8 48 7 53 -1 4 2 7 6 7 4 0 8 10 9 23 0
12 4 54 8 92 4 39 8 89 9 112 1 24 4 43 7 43 3 0 3 24 -1 53 -4 28 -6 69 -5
90 1 20 -2 37 -6 37 -12 0 -7 23 6 32 6 5 5 8 -2 8 -8 0 -13 15 -13 40 0 22
-4 40 -8 40 -5 0 -8 18 -8 39 1 22 -2 37 -6 35 -3 -2 -9 0 -13 6 -3 5 0 10 7
10 8 0 9 3 3 8 -9 6 -14 18 -19 47 -1 6 -5 15 -9 22 -4 6 -8 23 -9 37 -1 14
-6 26 -10 26 -4 0 -8 6 -8 13 0 16 -42 100 -55 109 -6 5 -6 8 -1 8 6 0 1 7
-10 16 -10 8 -13 13 -6 9 6 -3 12 -1 12 4 0 6 -5 11 -11 11 -5 0 -7 5 -4 10 3
6 0 10 -7 10 -7 0 -19 13 -26 28 -6 16 -21 38 -32 50 -11 12 -20 24 -20 27 0
4 -18 24 -40 46 -22 22 -40 45 -40 51 0 6 -3 9 -6 5 -3 -3 -22 9 -41 26 -19
18 -48 44 -64 60 -17 15 -37 27 -45 27 -9 0 -12 5 -9 10 3 6 -3 10 -15 10 -12
0 -18 5 -15 10 3 6 1 10 -5 10 -14 0 -93 51 -103 67 -4 7 -14 13 -22 13 -18 0
-75 33 -75 43 0 5 -4 5 -10 2 -5 -3 -10 -1 -10 4 0 6 -9 11 -20 11 -11 0 -20
4 -20 9 0 8 -37 24 -52 22 -5 -1 -8 4 -8 10 0 5 -4 7 -10 4 -5 -3 -10 -2 -10
3 0 8 -42 26 -46 19 -1 -1 -10 5 -20 15 -11 9 -28 18 -39 20 -11 1 -22 5 -25
8 -3 3 -16 11 -29 18 -19 11 -22 11 -15 0 4 -7 -2 -5 -13 5 -12 10 -27 19 -35
21 -7 1 -17 4 -23 7 -5 4 -18 5 -28 4 -9 -2 -15 0 -12 5 3 4 -5 11 -18 15 -12
4 -26 9 -32 10 -5 2 -20 6 -32 9 -12 2 -31 10 -43 16 -11 6 -25 8 -30 5 -5 -3
-13 3 -19 12 -7 12 -10 13 -11 4 0 -11 -3 -11 -15 -1 -8 6 -19 9 -25 5 -5 -3
-10 -1 -10 5 0 7 -6 10 -14 7 -7 -3 -19 0 -25 6 -6 6 -11 7 -11 3 0 -5 -7 -3
-15 4 -11 9 -15 9 -15 1 0 -7 -9 -6 -25 5 -20 13 -25 13 -25 3 0 -10 -3 -11
-8 -3 -4 7 -18 11 -32 10 -14 0 -24 4 -23 9 1 6 -18 9 -43 8 -24 -1 -44 3 -44
8 0 6 -6 7 -12 2 -18 -11 -38 -13 -38 -3 0 5 -8 7 -17 5 -10 -1 -22 0 -27 3
-5 3 -34 6 -65 7 -31 1 -56 3 -56 4 0 2 -8 4 -18 6 -9 2 -15 -1 -11 -6 3 -5
10 -6 16 -3 7 4 8 2 4 -4 -5 -9 -13 -9 -27 -2 -10 6 -19 7 -19 3 0 -4 -5 -2
-12 5 -7 7 -17 8 -29 2 -12 -7 -20 -6 -24 0 -4 6 -12 7 -18 3 -21 -13 -47 -13
-47 0 0 7 -3 8 -8 2 -9 -12 -94 -16 -86 -4 6 11 0 12 -10 2z"/>
</g>
</svg>
